<?xml version="1.0" standalone="no"?>
<!DOCTYPE svg PUBLIC "-//W3C//DTD SVG 20010904//EN"
 "http://www.w3.org/TR/2001/REC-SVG-20010904/DTD/svg10.dtd">
<svg version="1.0" xmlns="http://www.w3.org/2000/svg"
 width="1024.000000pt" height="1024.000000pt" viewBox="0 0 1024.000000 1024.000000"
 preserveAspectRatio="xMidYMid meet">

<g transform="translate(0.000000,1024.000000) scale(0.100000,-0.100000)"
fill="#000000" stroke="none">
<path d="M4755 10224 c-707 -60 -1303 -225 -1915 -531 -372 -185 -690 -394
-1015 -664 -138 -115 -502 -480 -617 -619 -346 -419 -609 -850 -816 -1340
-171 -407 -302 -924 -356 -1410 -14 -125 -36 -462 -36 -550 0 -88 32 -532 46
-640 40 -309 133 -700 238 -1009 360 -1051 1098 -1997 2041 -2619 336 -221
738 -420 1110 -548 389 -135 842 -234 1200 -263 72 -6 185 -15 252 -21 152
-13 315 -13 457 -1 61 6 172 15 246 21 372 31 826 129 1215 264 217 75 380
145 630 271 487 246 894 543 1296 944 408 408 723 847 974 1356 118 240 173
369 242 570 164 480 238 861 280 1433 15 211 15 269 5 450 -7 114 -19 270 -27
347 -106 1002 -520 1971 -1169 2735 -282 332 -642 665 -956 886 -542 379
-1074 627 -1700 793 -487 128 -1138 187 -1625 145z m721 -299 c288 -23 447
-45 699 -100 166 -35 426 -107 490 -135 24 -10 193 -69 215 -74 8 -3 29 -11
45 -20 17 -9 36 -16 43 -16 7 0 20 -4 30 -10 9 -5 105 -52 212 -104 107 -52
230 -114 272 -138 118 -66 192 -110 198 -117 3 -4 28 -20 55 -36 42 -24 152
-97 190 -127 6 -4 56 -42 113 -85 57 -43 120 -91 140 -106 152 -116 545 -509
686 -687 201 -251 355 -481 483 -715 65 -121 233 -473 233 -490 0 -3 9 -24 20
-48 11 -23 38 -94 60 -157 38 -105 51 -147 110 -340 24 -79 48 -182 65 -275 7
-38 20 -101 28 -140 9 -38 25 -151 37 -250 11 -99 24 -211 29 -250 12 -97 12
-694 1 -780 -5 -38 -19 -149 -31 -245 -12 -96 -23 -178 -25 -181 -1 -3 -8 -32
-13 -65 -6 -32 -26 -129 -46 -214 -20 -85 -38 -162 -39 -170 -2 -8 -6 -22 -8
-30 -3 -8 -38 -112 -77 -230 -86 -259 -75 -230 -89 -260 -6 -14 -34 -79 -62
-145 -55 -127 -202 -418 -246 -484 -15 -24 -23 -45 -18 -53 4 -7 3 -10 -1 -5
-5 4 -20 -12 -34 -35 -14 -24 -29 -47 -33 -53 -4 -5 -40 -59 -80 -120 -39 -60
-74 -112 -77 -115 -4 -3 -52 -66 -108 -140 -56 -74 -114 -148 -128 -165 -14
-16 -54 -61 -88 -100 -143 -163 -472 -477 -571 -544 -12 -8 -23 -18 -26 -21
-3 -4 -50 -40 -105 -81 -55 -41 -102 -77 -105 -80 -3 -3 -54 -38 -115 -77 -60
-39 -117 -76 -125 -82 -124 -87 -552 -305 -717 -366 -37 -13 -77 -29 -88 -34
-91 -43 -449 -156 -635 -199 -199 -47 -422 -84 -620 -103 -181 -17 -855 -17
-1005 0 -60 7 -128 15 -150 18 -174 21 -492 86 -650 134 -33 10 -89 26 -125
36 -36 9 -69 21 -75 25 -5 4 -13 7 -18 7 -13 1 -169 54 -212 72 -97 43 -177
70 -187 64 -6 -4 -8 -3 -5 3 4 6 -15 20 -43 32 -177 76 -446 219 -595 315 -27
18 -90 59 -139 91 -49 31 -94 61 -100 66 -6 5 -54 41 -106 81 -117 87 -197
152 -305 247 -75 67 -343 337 -400 405 -28 32 -63 73 -78 90 -16 17 -74 92
-130 166 -56 74 -104 137 -107 140 -6 5 -92 135 -176 265 -86 135 -190 333
-309 589 -40 86 -135 332 -135 348 0 5 -7 24 -15 41 -30 67 -103 333 -159 582
-64 286 -94 612 -94 1031 0 233 -4 332 -13 363 -12 41 -12 45 8 61 17 13 24
36 33 101 25 189 41 296 50 339 5 25 12 57 15 73 10 51 16 79 30 135 17 65 19
83 5 62 -6 -9 -10 -10 -10 -3 0 6 7 18 15 27 8 8 15 21 15 28 1 7 7 30 14 51
8 20 10 37 4 37 -5 0 -4 8 2 19 5 11 10 30 10 43 0 16 3 19 9 10 6 -10 11 -2
19 25 13 44 57 189 67 218 6 17 5 18 -5 5 -10 -13 -11 -12 -6 3 3 10 6 26 7
35 0 14 2 13 9 -3 7 -17 9 -14 9 13 1 22 5 31 13 26 8 -5 9 0 6 14 -4 12 -2
20 3 16 5 -3 9 4 9 15 0 12 5 21 11 21 6 0 8 7 5 17 -4 9 -3 19 3 22 5 3 27
47 50 96 50 110 172 353 209 417 15 26 40 71 56 100 16 29 37 65 47 80 11 14
19 33 19 42 0 9 4 16 9 16 5 0 23 21 39 48 47 74 151 223 189 269 19 24 31 48
28 53 -4 6 -3 9 2 8 5 -2 67 65 137 147 178 207 335 366 556 560 58 51 273
221 305 241 17 10 32 22 35 25 4 6 115 80 240 160 79 50 379 219 390 219 3 0
31 13 61 29 30 16 108 53 174 81 66 28 131 56 145 62 14 6 30 13 35 14 6 2 95
33 199 69 103 36 194 65 201 65 8 0 26 5 42 12 15 6 33 12 38 13 240 57 470
102 638 125 284 39 692 49 993 25z"/>
<path d="M4795 9843 c-227 -13 -578 -70 -821 -131 -299 -77 -448 -125 -641
-208 -17 -8 -34 -14 -37 -14 -9 0 -151 -66 -266 -123 -165 -82 -318 -166 -405
-222 -44 -29 -94 -60 -112 -70 -18 -10 -29 -23 -26 -29 3 -6 3 -8 -2 -4 -8 7
-36 -10 -170 -107 -134 -95 -301 -234 -443 -366 -45 -42 -71 -73 -66 -80 4 -8
3 -9 -4 -5 -11 7 -45 -24 -167 -155 -219 -234 -412 -494 -609 -823 -10 -17
-39 -69 -64 -116 -24 -47 -55 -104 -69 -128 -13 -23 -21 -48 -17 -55 4 -6 4
-9 -1 -5 -13 12 -144 -274 -150 -329 -1 -14 5 -29 16 -36 17 -12 17 -16 3 -57
-9 -25 -21 -48 -27 -52 -9 -6 -9 -8 -1 -8 18 0 -11 -74 -30 -78 -9 -2 -18 6
-22 22 -8 32 -20 25 -33 -17 -5 -18 -21 -72 -36 -122 -103 -342 -169 -695
-195 -1035 -14 -187 -12 -547 2 -556 7 -5 8 -2 3 6 -6 10 -4 12 10 7 9 -4 44
0 77 9 l60 17 -3 121 -4 121 35 3 c19 1 42 5 50 8 13 4 13 6 0 14 -11 7 0 10
35 11 l50 2 -40 6 -40 7 54 8 c36 6 49 11 40 17 -11 7 -9 12 11 26 14 10 38
21 55 25 16 3 57 13 90 22 33 8 74 15 92 16 17 0 35 5 39 11 4 6 21 8 43 5 28
-5 32 -4 19 4 -13 8 -58 5 -165 -9 -288 -39 -358 -46 -388 -40 -16 4 -27 7
-23 8 3 0 80 19 170 42 251 63 489 109 508 99 10 -5 30 -36 46 -68 l29 -58 55
24 c30 13 73 32 95 41 22 10 65 28 95 40 30 12 69 31 85 42 28 19 28 20 5 13
-14 -3 -26 -10 -28 -15 -2 -4 -10 -5 -18 -2 -8 3 -14 1 -14 -4 0 -5 -6 -10
-13 -10 -7 0 -39 -12 -71 -26 -32 -15 -63 -27 -70 -27 -6 -1 -29 -9 -51 -20
-22 -11 -46 -19 -52 -20 -7 0 -24 23 -38 50 -39 78 -44 78 -270 36 -108 -21
-199 -35 -203 -32 -3 3 4 6 15 6 20 0 54 33 66 63 3 9 12 17 18 17 8 0 7 5 -2
17 -13 15 -11 16 13 10 18 -5 29 -3 35 7 4 8 24 17 43 20 33 5 110 20 430 81
69 13 222 40 340 60 118 19 260 44 315 55 171 33 307 52 315 43 4 -4 10 -30
13 -57 4 -42 2 -49 -14 -53 -30 -8 -22 -26 9 -19 15 3 39 8 53 10 14 3 53 12
86 20 73 19 105 20 121 4 14 -14 15 -28 4 -45 -4 -7 -93 -30 -197 -53 -105
-22 -260 -56 -346 -75 -111 -24 -182 -45 -244 -74 -48 -23 -94 -41 -103 -41
-32 0 -62 12 -56 22 4 5 -29 -9 -73 -31 -44 -23 -83 -41 -87 -41 -3 0 -39 -15
-79 -33 -108 -50 -174 -77 -191 -77 -8 0 -17 -4 -21 -9 -9 -15 114 23 218 67
72 31 126 46 228 62 74 12 184 32 244 45 61 13 151 31 200 40 50 10 137 28
193 41 132 31 160 31 171 2 15 -42 -4 -56 -104 -73 -36 -7 -38 -8 -17 -16 12
-5 27 -20 34 -34 13 -29 21 -30 79 -9 51 19 93 29 208 48 46 8 84 16 85 18 1
2 8 22 14 45 28 95 142 192 255 214 111 23 260 -38 325 -134 26 -36 41 -74 67
-164 2 -6 12 -10 22 -7 10 2 68 13 128 24 119 22 714 139 1148 225 148 29 270
55 273 57 2 2 -1 22 -7 44 -26 93 16 232 93 311 22 23 68 54 102 69 84 38 147
42 237 14 117 -35 202 -131 224 -252 8 -44 21 -47 97 -24 119 36 158 88 158
208 0 88 -63 184 -149 227 -125 63 -260 81 -602 81 l-216 0 -114 34 c-614 186
-816 189 -1549 20 -1045 -241 -1595 -373 -1587 -380 3 -3 64 7 342 56 61 10
140 22 176 25 57 5 127 20 314 66 22 5 67 13 100 18 79 12 261 57 302 76 39
17 426 111 633 153 210 43 333 56 525 56 244 0 363 -23 745 -147 94 -30 97
-30 390 -38 162 -4 304 -9 315 -13 11 -3 46 -10 78 -16 38 -8 57 -16 57 -26 0
-8 -10 -14 -25 -14 -14 0 -25 -4 -25 -9 0 -4 -20 -14 -44 -21 -44 -12 -66 -34
-43 -44 7 -2 4 -5 -7 -5 -10 -1 -50 10 -88 24 -78 28 -130 31 -203 11 -28 -7
-77 -11 -110 -9 -40 3 -55 1 -46 -5 9 -7 10 -12 2 -16 -6 -4 -14 0 -17 9 -4 9
-9 12 -13 7 -7 -11 -151 -43 -162 -36 -4 2 -40 -3 -81 -12 -40 -9 -98 -20
-128 -25 -98 -14 -283 -38 -370 -48 -47 -6 -126 -15 -175 -22 -90 -11 -172 -9
-210 5 -15 5 -14 4 3 -6 22 -14 20 -15 -45 -28 -57 -11 -340 -24 -331 -15 4 4
87 21 222 45 179 32 815 156 954 186 58 12 72 19 72 34 0 10 -4 21 -9 25 -5 3
-63 -6 -128 -20 -202 -42 -815 -156 -824 -153 -4 2 -33 54 -63 116 -31 61 -60
112 -66 112 -5 0 -10 -4 -10 -8 0 -4 -9 -8 -20 -8 -11 0 -20 6 -20 13 0 7 -4
13 -10 13 -5 0 -10 -6 -10 -12 0 -9 -3 -8 -10 2 -5 8 -12 12 -15 8 -6 -5 15
-78 57 -201 11 -32 18 -60 16 -63 -9 -8 -501 -94 -542 -94 -68 0 -110 18 -158
65 -40 39 -52 45 -89 46 l-44 0 25 17 c38 26 80 69 80 83 0 7 -10 4 -23 -9
-14 -13 -36 -22 -54 -22 -44 0 -84 -17 -90 -38 -8 -30 -80 -80 -126 -87 -23
-4 -46 -11 -52 -15 -5 -5 -21 -8 -35 -8 -44 0 -104 -10 -135 -23 -24 -10 -26
-13 -12 -16 10 -3 26 -2 35 2 9 4 28 9 42 10 14 2 106 19 205 38 117 22 186
31 198 25 21 -11 22 -41 2 -58 -19 -16 -248 -72 -340 -83 -36 -5 -216 -39
-375 -72 -138 -29 -218 -43 -284 -51 -27 -4 -111 -19 -185 -34 -79 -16 -142
-25 -151 -20 -9 5 -29 2 -49 -6 -18 -8 -45 -14 -60 -14 -15 0 -32 -5 -38 -11
-18 -18 -284 -87 -497 -130 -173 -34 -222 -41 -205 -25 2 2 108 31 234 65 317
86 399 111 378 118 -6 2 -55 -9 -109 -25 -55 -17 -145 -39 -200 -51 -56 -11
-109 -24 -118 -27 -18 -7 -49 20 -51 45 0 9 -4 22 -9 29 -4 6 -5 12 -3 12 2 0
1 18 -3 39 l-7 40 36 3 c21 2 -24 11 -108 23 -93 13 -145 24 -148 33 -8 19 50
292 97 467 41 148 125 403 139 417 4 4 48 -4 99 -19 76 -21 95 -24 105 -13 10
10 9 12 -3 8 -9 -3 -29 1 -45 8 l-30 14 35 -4 c19 -3 29 -2 23 1 -18 7 -17 15
17 86 17 35 30 68 30 73 0 5 9 15 20 22 11 7 20 22 20 33 0 30 59 89 90 89 14
0 37 -10 50 -22 31 -27 50 -33 50 -15 0 8 12 20 26 27 19 11 24 19 19 37 -4
16 1 28 15 40 11 10 20 23 20 30 0 15 31 25 56 18 20 -6 -283 149 -307 157
-17 6 0 39 115 221 136 214 289 419 429 571 l63 69 163 -130 c90 -72 178 -138
195 -148 l31 -18 -24 26 c-29 32 -17 36 16 5 26 -24 32 -9 7 17 -15 15 -15 17
5 22 12 3 21 13 21 25 0 21 59 80 103 104 15 8 27 19 27 24 0 6 7 10 15 10 8
0 15 7 15 15 0 8 6 15 13 15 23 0 67 25 67 38 0 6 7 12 15 12 9 0 21 5 28 10
7 6 31 24 55 40 30 21 40 35 35 44 -4 8 -73 90 -152 182 l-144 168 39 33 c153
130 703 475 795 498 21 5 27 1 42 -27 53 -105 168 -311 178 -318 3 -3 9 -15
13 -27 7 -22 26 -32 26 -14 0 5 3 18 6 28 5 15 4 15 -5 3 -5 -8 -13 -11 -18
-7 -4 5 -1 12 7 17 10 7 18 5 25 -4 9 -12 15 -12 35 0 14 7 33 13 43 14 9 0
17 6 17 13 0 14 61 37 98 37 11 0 22 7 26 15 3 8 15 15 26 15 11 0 38 9 60 20
21 11 45 17 53 14 8 -3 18 -1 22 5 3 6 22 11 41 11 33 0 38 5 35 40 0 8 4 5
11 -7 6 -13 15 -23 20 -23 10 0 10 6 -1 28 -6 9 -23 58 -40 107 -16 50 -48
140 -70 202 l-40 112 62 20 c126 40 292 83 442 115 141 29 504 82 505 74 11
-72 61 -449 63 -465 1 -11 6 -19 10 -16 5 3 7 16 4 29 -3 18 -1 22 8 14 6 -5
14 -8 16 -5 3 2 115 5 250 5 l244 1 5 -38 c7 -46 17 80 27 325 l6 162 71 -1
c39 -1 123 -6 186 -13 135 -13 124 17 91 -233 -12 -95 -20 -181 -18 -190 3
-11 5 -6 6 12 2 28 3 29 11 8 7 -18 17 -23 44 -23 19 0 36 5 38 10 5 17 297
-55 305 -76 2 -7 21 -12 41 -12 20 0 38 -5 40 -11 6 -19 28 -12 38 12 6 12 8
15 6 7 -2 -8 -6 -31 -8 -50 -6 -46 35 76 87 260 23 80 43 147 45 149 12 14
585 -180 616 -208 4 -3 -4 -28 -16 -56 -13 -27 -47 -104 -76 -170 -30 -66 -58
-125 -64 -131 -6 -6 -76 -16 -156 -23 -560 -44 -1340 -212 -1950 -419 -267
-91 -411 -143 -484 -176 -32 -14 -62 -26 -67 -26 -5 0 -55 -20 -112 -44 -324
-140 -630 -297 -927 -479 -63 -38 -141 -86 -172 -105 -32 -19 -58 -38 -58 -43
0 -8 34 6 185 76 632 293 1326 526 1945 654 364 76 474 93 805 126 279 28 309
29 300 15 -3 -5 -18 -10 -32 -10 -45 0 -262 -48 -458 -101 -104 -28 -239 -64
-300 -80 -343 -91 -980 -329 -1295 -483 -128 -63 -316 -165 -428 -233 -39 -24
-18 -25 39 -3 203 80 763 254 1029 320 415 102 742 152 1263 193 26 2 47 0 47
-4 0 -5 -9 -9 -19 -9 -75 0 -641 -136 -896 -215 -189 -59 -683 -251 -672 -261
2 -3 58 9 123 25 410 102 801 170 1179 206 143 14 303 25 355 24 l95 0 -150
-34 c-154 -33 -292 -70 -590 -156 -177 -51 -593 -194 -610 -210 -12 -12 9 -11
60 1 22 6 186 37 365 70 503 93 860 142 1485 200 299 29 505 82 628 164 185
123 281 354 236 568 -15 73 -80 193 -138 259 l-49 54 39 65 c21 36 42 70 46
75 4 6 17 27 28 48 11 20 24 37 30 37 12 0 179 -105 265 -166 30 -22 77 -55
104 -74 119 -85 428 -348 424 -361 -2 -5 -59 -65 -127 -134 -68 -69 -122 -127
-120 -130 3 -2 26 16 53 40 47 44 64 55 50 34 -4 -8 1 -9 17 -4 72 23 129 -12
129 -78 0 -30 -7 -45 -30 -67 -18 -17 -30 -38 -29 -52 0 -12 3 -17 6 -11 7 18
33 -9 33 -34 0 -23 51 -98 84 -124 15 -11 24 -25 21 -30 -4 -5 -2 -9 3 -9 5 0
15 -12 22 -26 12 -21 19 -25 45 -21 16 3 24 3 18 0 -7 -2 -13 -11 -13 -19 0
-13 56 20 135 79 70 52 137 97 144 97 28 0 348 -468 338 -494 -3 -6 -75 -46
-161 -89 l-157 -79 18 -21 c9 -12 24 -27 31 -34 7 -6 14 -22 15 -35 1 -12 14
-47 29 -77 16 -30 28 -60 28 -67 0 -7 5 -14 11 -16 6 -2 11 -20 12 -41 1 -21
6 -37 13 -37 13 0 40 -81 43 -129 0 -11 11 -23 23 -27 l21 -6 -24 -14 c-41
-23 -9 -16 126 27 224 71 250 79 257 79 24 0 190 -501 234 -708 29 -137 30
-145 6 -137 -15 4 -688 -124 -865 -165 -23 -5 -179 -37 -347 -70 -168 -33
-359 -72 -425 -86 -66 -14 -142 -29 -170 -34 -27 -5 -117 -23 -200 -40 -82
-17 -172 -35 -200 -40 -27 -5 -104 -20 -170 -34 -66 -15 -208 -44 -316 -66
-181 -37 -305 -69 -207 -55 20 3 39 1 43 -5 3 -5 0 -7 -9 -4 -8 3 -19 -3 -25
-14 -6 -11 -28 -26 -48 -33 -21 -6 -43 -15 -49 -20 -5 -5 -58 -24 -116 -44
-58 -19 -136 -50 -174 -69 -37 -19 -71 -33 -75 -31 -3 3 -14 -4 -24 -15 -10
-11 -24 -20 -32 -20 -7 0 -13 -4 -13 -9 0 -5 -21 -17 -46 -27 -26 -10 -56 -31
-71 -50 -26 -35 -57 -48 -136 -59 -61 -8 -79 -38 -76 -131 3 -93 -12 -99 -50
-19 -35 71 -69 97 -104 76 -21 -14 -288 -5 -338 10 -19 6 -56 13 -84 15 -27 3
-84 8 -125 12 -41 4 -185 4 -319 0 -147 -4 -250 -4 -260 2 -13 8 -12 9 8 10
13 0 22 2 19 5 -5 5 -232 -39 -868 -169 -201 -41 -414 -84 -475 -96 -60 -12
-175 -35 -255 -52 -80 -16 -212 -42 -295 -58 -82 -16 -170 -33 -195 -38 -54
-12 -1070 -216 -1320 -266 -96 -20 -195 -40 -220 -45 -25 -6 -102 -22 -172
-37 l-128 -27 0 -36 c-1 -120 -57 184 -85 458 -8 85 -15 178 -15 208 l0 55
-33 -7 c-17 -4 -50 -12 -72 -18 -22 -6 -44 -10 -48 -9 -4 1 -5 -19 -3 -45 3
-27 8 -93 11 -148 12 -186 53 -442 110 -683 35 -142 101 -370 130 -442 7 -19
29 -78 49 -130 88 -240 250 -582 346 -730 5 -8 17 -28 26 -45 43 -78 245 -370
317 -459 18 -21 37 -46 42 -55 10 -16 30 -41 70 -86 11 -13 47 -55 80 -93 78
-92 325 -337 440 -436 130 -112 128 -110 155 -128 14 -9 34 -24 45 -35 48 -44
421 -302 470 -324 11 -5 36 -19 55 -30 249 -150 666 -336 920 -409 36 -10 85
-26 110 -35 55 -20 383 -100 465 -114 711 -122 1344 -106 1993 50 243 59 578
167 737 239 22 10 91 42 154 70 136 62 292 144 401 211 8 5 29 16 45 25 88 49
284 187 279 196 -4 6 -2 8 4 4 10 -6 94 51 181 121 19 16 57 46 86 68 182 139
504 459 669 665 20 25 50 62 68 83 28 35 82 110 179 247 43 62 140 216 171
270 14 25 38 68 55 95 46 78 233 464 233 481 0 3 7 20 15 37 22 49 109 293
134 377 13 41 27 86 31 100 9 25 54 206 83 335 26 115 65 370 83 535 20 185
23 662 5 845 -68 706 -279 1374 -625 1979 -6 11 -35 55 -63 98 -29 44 -53 82
-53 84 0 18 -217 320 -323 449 -167 203 -384 421 -627 628 -72 62 -299 230
-380 282 -41 27 -93 60 -115 75 -123 82 -505 287 -625 334 -425 169 -595 223
-940 299 -157 35 -401 70 -615 87 -108 9 -554 11 -680 3z m2265 -938 c118 -28
196 -69 274 -147 38 -38 66 -71 63 -74 -3 -3 -16 4 -28 15 -13 12 -30 19 -38
16 -8 -3 -18 0 -22 7 -7 11 -12 11 -30 0 -16 -10 -19 -10 -13 -1 5 8 2 11 -8
6 -9 -3 -21 0 -27 6 -6 6 -11 8 -11 4 0 -3 23 -27 50 -53 30 -28 63 -73 83
-113 30 -62 32 -72 32 -176 0 -106 -1 -112 -34 -172 -41 -77 -113 -146 -189
-181 -51 -24 -69 -27 -162 -27 -95 0 -110 3 -164 29 -169 83 -251 269 -201
459 17 67 68 151 113 189 31 26 31 27 7 24 -14 -2 -28 -6 -33 -11 -4 -4 0 -5
8 0 8 5 12 4 8 0 -11 -12 -44 -15 -228 -19 -91 -2 -273 -9 -405 -15 -132 -7
-342 -11 -467 -9 -125 2 -220 0 -210 -3 26 -9 -59 -16 -99 -7 -20 4 -36 2 -40
-4 -4 -6 -18 -8 -33 -4 -14 3 -46 1 -70 -5 -25 -6 -51 -9 -58 -7 -7 3 17 12
52 21 36 9 115 30 176 46 389 102 836 184 1199 221 139 14 416 5 505 -15z
m290 -199 c0 -3 -4 -8 -10 -11 -5 -3 -10 -1 -10 4 0 6 5 11 10 11 6 0 10 -2
10 -4z m-4834 -371 c9 -8 11 -15 6 -15 -5 0 -15 7 -22 15 -7 8 -9 15 -6 15 4
0 14 -7 22 -15z m6279 -1045 c-3 -5 -14 -10 -23 -9 -14 0 -13 2 3 9 27 11 27
11 20 0z m-7400 -70 c13 -6 15 -9 5 -9 -8 0 -22 4 -30 9 -18 12 -2 12 25 0z
m4340 -940 c3 -5 2 -10 -4 -10 -5 0 -13 5 -16 10 -3 6 -2 10 4 10 5 0 13 -4
16 -10z m36 -27 c13 -16 12 -17 -3 -4 -10 7 -18 15 -18 17 0 8 8 3 21 -13z
m-2681 -270 l55 -13 -52 5 c-46 5 -52 4 -46 -11 5 -14 3 -15 -11 -7 -22 12
-139 -2 -183 -22 -17 -8 -37 -15 -45 -14 -7 0 -4 4 7 9 11 5 14 9 7 9 -7 1
-20 -3 -30 -8 -9 -5 -48 -14 -87 -20 -117 -19 -166 -34 -161 -48 3 -7 -1 -13
-9 -13 -9 0 -12 -6 -9 -15 4 -8 -1 -17 -10 -21 -9 -3 -14 -10 -11 -14 3 -5
-15 -15 -40 -23 l-45 -16 -6 25 c-8 30 1 93 15 107 6 6 52 18 103 27 116 22
321 66 369 80 20 6 42 17 49 25 11 13 17 12 49 -7 19 -13 61 -28 91 -35z m415
47 c-11 -5 -27 -9 -35 -9 -13 -1 -13 0 0 9 8 5 24 9 35 9 l20 0 -20 -9z m-65
-4 c0 -9 -137 -45 -190 -50 -30 -4 -62 -2 -70 4 -11 7 -8 9 15 9 17 -1 50 4
75 11 25 6 70 15 100 19 30 5 58 9 63 10 4 0 7 -1 7 -3z m6141 -14 c-7 -2 -18
1 -23 6 -8 8 -4 9 13 5 13 -4 18 -8 10 -11z m37 -97 c-1 -31 -16 35 -16 70 0
25 2 24 9 -10 4 -22 8 -49 7 -60z m19 -147 c-3 -8 -6 -5 -6 6 -1 11 2 17 5 13
3 -3 4 -12 1 -19z m-1720 -74 c-3 -3 -12 -4 -19 -1 -8 3 -5 6 6 6 11 1 17 -2
13 -5z m-310 -60 c-3 -3 -12 -4 -19 -1 -8 3 -5 6 6 6 11 1 17 -2 13 -5z m-482
-104 c3 -6 -1 -7 -9 -4 -18 7 -21 14 -7 14 6 0 13 -4 16 -10z m-325 -60 c0 -5
-12 -10 -27 -9 l-28 1 25 8 c14 4 26 8 28 9 1 1 2 -3 2 -9z m-2294 -467 c-23
-4 -26 -7 -15 -14 10 -8 8 -9 -8 -4 -14 4 -23 2 -23 -4 0 -6 -7 -11 -16 -11
-9 0 -12 5 -8 11 5 9 -4 10 -32 4 -21 -4 -36 -4 -33 -1 9 10 89 24 129 23 32
0 32 0 6 -4z m-811 -163 c-11 -5 -27 -9 -35 -9 -9 0 -8 4 5 9 11 5 27 9 35 9
9 0 8 -4 -5 -9z m-435 -90 c0 -5 -4 -10 -9 -10 -6 0 -13 5 -16 10 -3 6 1 10 9
10 9 0 16 -4 16 -10z m-57 -17 c-7 -2 -19 -2 -25 0 -7 3 -2 5 12 5 14 0 19 -2
13 -5z m-395 -80 c-10 -2 -28 -2 -40 0 -13 2 -5 4 17 4 22 1 32 -1 23 -4z
m6839 -160 c-3 -10 -5 -4 -5 12 0 17 2 24 5 18 2 -7 2 -21 0 -30z m-6654 -18
c1 -5 -6 -11 -15 -13 -11 -2 -18 3 -18 13 0 17 30 18 33 0z m6634 -107 c-3 -7
-5 -2 -5 12 0 14 2 19 5 13 2 -7 2 -19 0 -25z m-3412 -188 c11 -12 16 -29 13
-45 -3 -14 -1 -28 3 -31 14 -8 10 -40 -6 -54 -12 -10 -4 -22 58 -80 134 -126
189 -272 186 -490 -2 -137 -15 -199 -61 -305 -68 -154 -157 -260 -294 -348
-155 -99 -265 -132 -444 -132 -102 0 -139 5 -200 23 -159 49 -276 137 -350
262 -41 68 -80 190 -80 250 0 27 -3 32 -11 20 -7 -11 -8 -1 -5 35 l6 50 -13
-45 c-34 -114 -119 -268 -188 -340 -209 -216 -523 -308 -792 -231 -197 57
-338 188 -401 374 -26 78 -38 215 -26 319 39 353 282 624 625 699 85 19 275
16 352 -4 34 -9 91 -31 125 -48 197 -99 306 -270 325 -507 l6 -86 17 60 c54
187 152 332 298 441 100 75 204 119 340 146 95 19 113 20 215 8 61 -6 144 -23
184 -36 75 -26 128 -25 82 1 -13 7 -31 13 -40 14 -8 0 -24 6 -35 14 -18 14
-18 15 10 45 16 16 38 32 50 34 11 2 24 5 27 6 3 0 14 -8 24 -19z m-2535 -100
c24 -24 24 -13 0 -156 l-20 -118 -83 -86 c-273 -278 -543 -560 -569 -592 l-29
-37 265 2 c262 2 266 2 288 -20 l22 -22 -25 -148 c-17 -103 -29 -153 -41 -165
-17 -17 -58 -18 -571 -18 -539 0 -554 1 -572 20 -19 21 -18 36 7 200 l11 74
141 145 c78 80 231 238 341 351 l200 205 -231 5 c-306 7 -290 -7 -253 212 11
68 27 133 35 146 l14 22 525 0 c512 0 526 -1 545 -20z m3358 3 c12 -10 57
-109 103 -223 112 -283 97 -262 145 -203 22 26 62 77 89 113 27 36 53 70 57
75 4 6 37 48 73 95 36 47 79 102 95 123 l31 37 184 0 185 0 17 -26 c16 -26 15
-41 -51 -438 -37 -226 -76 -458 -86 -516 -10 -58 -26 -154 -35 -215 -20 -133
-31 -171 -51 -179 -9 -3 -88 -6 -177 -6 -220 0 -213 -8 -177 216 72 446 68
413 43 393 -9 -8 -68 -79 -132 -159 -63 -80 -122 -150 -130 -157 -20 -15 -82
-17 -114 -2 -23 10 -54 68 -136 252 -17 37 -35 67 -41 67 -18 0 -23 -29 -9
-47 8 -10 9 -14 2 -10 -15 10 -17 4 -53 -223 -48 -299 -49 -304 -67 -317 -12
-9 -66 -13 -184 -13 -197 0 -205 3 -196 79 5 50 59 376 136 826 27 160 55 323
61 364 19 112 16 111 224 111 151 0 176 -2 194 -17z m2497 -138 c-8 -27 -14
-41 -14 -29 -1 21 19 88 24 82 2 -2 -3 -25 -10 -53z m-32 -125 c-3 -11 -10
-23 -16 -27 -5 -3 -8 -2 -5 3 3 5 8 17 11 27 9 24 16 22 10 -3z m-30 -53 c3
-8 -1 -14 -8 -14 -7 0 -11 6 -8 14 3 7 6 13 8 13 2 0 5 -6 8 -13z m-16 -89
c-3 -8 -6 -5 -6 6 -1 11 2 17 5 13 3 -3 4 -12 1 -19z m-76 -205 c-12 -20 -14
-14 -5 12 4 9 9 14 11 11 3 -2 0 -13 -6 -23z m-40 -100 c-8 -15 -10 -15 -11
-2 0 17 10 32 18 25 2 -3 -1 -13 -7 -23z m-50 -120 c-12 -20 -14 -14 -5 12 4
9 9 14 11 11 3 -2 0 -13 -6 -23z m-61 -133 c0 -5 -5 -10 -11 -10 -5 0 -7 5 -4
10 3 6 8 10 11 10 2 0 4 -4 4 -10z m-8200 -10 c0 -5 -2 -10 -4 -10 -3 0 -8 5
-11 10 -3 6 -1 10 4 10 6 0 11 -4 11 -10z m8113 -155 c-3 -9 -8 -14 -10 -11
-3 3 -2 9 2 15 9 16 15 13 8 -4z m-63 -115 c0 -5 -5 -10 -11 -10 -5 0 -7 5 -4
10 3 6 8 10 11 10 2 0 4 -4 4 -10z m-94 -152 c-9 -12 -16 -19 -16 -15 0 11 24
47 28 42 2 -2 -3 -14 -12 -27z m-7706 -32 c0 -6 -7 -1 -15 10 -8 10 -15 23
-15 28 0 6 7 1 15 -10 8 -10 15 -23 15 -28z m60 -77 c0 -6 -4 -7 -10 -4 -5 3
-10 11 -10 16 0 6 5 7 10 4 6 -3 10 -11 10 -16z m2901 -109 c75 -14 137 -56
174 -114 28 -46 30 -57 30 -140 0 -80 -3 -97 -28 -144 -15 -29 -25 -58 -21
-64 5 -7 2 -8 -6 -3 -7 5 -20 -2 -34 -17 -44 -51 -149 -88 -253 -88 -73 0 -74
-1 -92 -108 -9 -51 -18 -75 -31 -82 -10 -6 -59 -10 -108 -10 -77 0 -91 3 -108
21 -18 20 -17 25 20 247 21 125 47 283 57 352 24 165 17 160 204 160 78 0 167
-5 196 -10z m658 -7 c22 -19 68 -183 144 -508 19 -82 37 -143 40 -135 3 8 28
152 56 320 45 272 53 307 73 324 21 17 39 18 218 14 187 -4 197 -5 252 -31 87
-42 131 -114 132 -215 1 -100 -20 -149 -91 -219 l-63 -63 47 -94 47 -95 32
187 c66 384 85 486 95 504 13 25 45 31 139 27 107 -5 115 -14 103 -108 -5 -39
-8 -71 -6 -71 4 0 21 15 118 110 l66 65 120 0 c96 0 122 -3 129 -15 24 -37 9
-58 -131 -194 l-141 -136 101 -180 c56 -98 101 -188 101 -199 0 -38 -36 -51
-146 -51 -84 0 -103 3 -116 18 -13 16 -87 144 -117 205 -8 15 -17 27 -21 27
-20 0 -40 -44 -55 -120 -26 -129 -27 -130 -142 -130 -72 0 -101 4 -113 15 -15
14 -18 14 -30 0 -10 -12 -36 -15 -119 -15 -58 0 -111 4 -118 8 -7 4 -37 52
-66 107 -30 54 -59 101 -64 102 -6 2 -18 -38 -28 -92 -9 -52 -23 -102 -31
-110 -12 -11 -57 -14 -231 -14 -119 0 -224 4 -234 10 -10 5 -23 31 -30 64
l-12 55 -108 0 -108 0 -27 -47 c-48 -84 -46 -83 -151 -83 -52 0 -103 5 -114
10 -26 15 -25 62 5 108 34 53 142 237 268 457 61 104 115 193 121 197 7 4 51
8 98 8 68 0 91 -4 108 -17z m3922 -19 c-11 -15 -21 -23 -21 -18 0 14 31 56 37
50 3 -3 -4 -17 -16 -32z m-683 -45 c6 -53 -72 -79 -80 -26 -4 31 22 58 52 55
18 -2 26 -10 28 -29z m-6583 -127 c-3 -3 -6 -3 -7 -1 -2 2 -14 18 -28 34 l-25
30 32 -29 c18 -16 31 -32 28 -34z m7143 8 c-7 -10 -14 -17 -17 -15 -4 4 18 35
25 35 2 0 -1 -9 -8 -20z m-40 -50 c-7 -10 -14 -17 -17 -15 -4 4 18 35 25 35 2
0 -1 -9 -8 -20z m-6993 -90 c10 -11 16 -20 13 -20 -3 0 -13 9 -23 20 -10 11
-16 20 -13 20 3 0 13 -9 23 -20z m6935 17 c0 -2 -10 -12 -22 -23 l-23 -19 19
23 c18 21 26 27 26 19z m-6890 -57 c0 -5 -2 -10 -4 -10 -3 0 -8 5 -11 10 -3 6
-1 10 4 10 6 0 11 -4 11 -10z m6835 0 c-3 -5 -11 -10 -16 -10 -6 0 -7 5 -4 10
3 6 11 10 16 10 6 0 7 -4 4 -10z m-6810 -40 c10 -11 16 -20 13 -20 -3 0 -13 9
-23 20 -10 11 -16 20 -13 20 3 0 13 -9 23 -20z m6795 17 c0 -2 -12 -14 -27
-28 l-26 -24 19 27 c16 23 34 36 34 25z m-95 -106 c-3 -6 -11 -11 -16 -11 -5
0 -4 6 3 14 14 16 24 13 13 -3z m-177 -136 c21 0 22 -27 2 -33 -13 -5 -13 -3
-1 11 9 11 10 17 2 17 -11 0 -13 -6 -15 -32 0 -18 -115 -128 -226 -217 -52
-42 -97 -78 -100 -81 -21 -24 -174 -132 -209 -149 -50 -24 -82 -28 -63 -9 9 9
3 17 -23 35 -19 13 -35 29 -35 35 0 6 3 8 6 5 4 -4 19 4 34 16 15 12 38 29 50
37 13 8 32 23 42 33 10 9 24 17 31 17 8 0 24 11 36 24 12 13 38 32 58 42 20
11 55 36 77 56 23 21 45 38 50 38 4 0 26 18 47 40 22 22 41 40 44 40 3 0 13 8
23 18 24 23 83 70 102 82 10 6 21 4 33 -8 10 -9 26 -17 35 -17z m-228 -425 c0
-5 -5 -10 -11 -10 -5 0 -7 5 -4 10 3 6 8 10 11 10 2 0 4 -4 4 -10z"/>
<path d="M6650 8700 c0 -5 5 -10 10 -10 6 0 10 5 10 10 0 6 -4 10 -10 10 -5 0
-10 -4 -10 -10z"/>
<path d="M4275 3726 c-124 -39 -203 -128 -241 -271 -65 -241 103 -427 328
-361 168 48 287 264 248 449 -31 149 -182 231 -335 183z"/>
<path d="M5715 3727 c-93 -31 -131 -60 -189 -145 -114 -170 -79 -411 71 -479
47 -22 65 -25 127 -21 131 9 225 75 286 202 26 55 33 86 38 152 8 138 -31 226
-122 273 -58 30 -150 37 -211 18z"/>
<path d="M3910 2406 c-5 -15 -10 -34 -10 -43 0 -15 -86 -548 -96 -591 -5 -22
-3 -23 73 -20 l77 3 15 95 16 95 105 6 c164 8 249 57 290 166 35 95 21 184
-38 246 -48 51 -83 60 -259 65 l-163 4 -10 -26z m305 -141 c44 -43 25 -138
-32 -164 -13 -6 -58 -11 -100 -11 l-75 0 6 33 c4 17 12 62 18 100 l11 67 74 0
c65 0 77 -3 98 -25z"/>
<path d="M4087 2223 c-3 -10 -9 -33 -12 -51 l-7 -33 48 3 c41 3 51 7 64 30 21
39 5 62 -48 66 -32 2 -41 -1 -45 -15z"/>
<path d="M4674 2348 c-26 -46 -81 -141 -123 -213 -41 -71 -107 -185 -148 -252
-40 -67 -73 -125 -73 -128 0 -3 35 -5 78 -5 l79 0 38 70 39 71 140 -3 141 -3
15 -65 16 -65 80 -3 81 -3 -25 103 c-13 57 -50 209 -82 338 l-58 235 -75 3
-75 3 -48 -83z m100 -125 c3 -10 12 -52 21 -93 9 -41 18 -83 21 -92 5 -16 -3
-18 -80 -18 -47 0 -86 3 -86 6 0 13 105 214 112 214 4 0 9 -8 12 -17z"/>
<path d="M4730 2085 c-10 -12 -10 -15 4 -15 9 0 16 7 16 15 0 8 -2 15 -4 15
-2 0 -9 -7 -16 -15z"/>
<path d="M5240 2407 c-8 -19 -110 -620 -110 -647 0 -6 29 -10 74 -10 84 0 74
-13 96 120 17 103 15 100 71 100 l49 0 55 -110 55 -110 85 0 85 0 -55 110
c-30 60 -55 114 -55 119 0 5 13 14 29 19 47 16 108 79 128 130 22 57 22 146 0
187 -47 91 -122 116 -345 114 -147 -1 -154 -2 -162 -22z m341 -146 c45 -46 32
-123 -26 -149 -28 -13 -215 -17 -215 -4 0 4 7 45 15 92 8 47 15 86 15 88 0 1
41 2 91 2 87 0 92 -1 120 -29z"/>
<path d="M5406 2209 c-12 -60 -12 -60 60 -57 55 3 69 7 81 25 13 19 12 24 -6
42 -16 16 -34 21 -75 21 -52 0 -54 -1 -60 -31z"/>
<path d="M5939 2423 c-12 -3 -22 -41 -43 -161 -15 -86 -38 -215 -51 -287 -13
-71 -27 -151 -30 -177 l-7 -48 75 0 75 0 18 97 c18 94 20 100 64 140 25 24 50
43 55 43 6 0 43 -63 83 -140 l73 -140 85 0 c46 0 84 4 84 9 0 4 -35 71 -77
147 -42 76 -88 161 -102 187 l-26 48 143 137 c78 75 142 140 142 145 0 4 -39
7 -86 7 l-86 0 -111 -109 c-62 -60 -127 -121 -144 -136 l-33 -27 0 24 c0 12 9
73 20 133 11 61 20 111 20 113 0 4 -124 0 -141 -5z"/>
<path d="M5642 9210 c0 -14 2 -19 5 -12 2 6 2 18 0 25 -3 6 -5 1 -5 -13z"/>
<path d="M3330 8805 c0 -5 5 -17 10 -25 5 -8 10 -10 10 -5 0 6 -5 17 -10 25
-5 8 -10 11 -10 5z"/>
<path d="M2560 8293 c0 -6 8 -17 18 -24 16 -13 16 -13 2 6 -8 11 -16 22 -17
24 -2 2 -3 0 -3 -6z"/>
<path d="M2140 7916 c0 -2 8 -10 18 -17 15 -13 16 -12 3 4 -13 16 -21 21 -21
13z"/>
<path d="M8413 7763 c4 -3 -1 -12 -11 -20 -15 -13 -15 -13 6 -3 19 9 23 30 5
30 -4 0 -3 -3 0 -7z"/>
<path d="M7319 7433 c-63 -14 -157 -32 -209 -42 -52 -10 -131 -26 -175 -34
-44 -9 -96 -18 -115 -21 -19 -2 -71 -13 -115 -24 -44 -12 -134 -31 -200 -42
-126 -23 -175 -45 -194 -88 -13 -28 -14 -83 -2 -131 5 -20 15 -67 21 -106 11
-67 32 -174 51 -260 5 -22 14 -65 20 -95 6 -30 15 -75 20 -100 5 -25 14 -74
19 -110 6 -36 17 -92 25 -125 7 -33 19 -85 26 -115 23 -102 47 -141 98 -153
14 -3 72 1 130 9 113 15 132 19 281 54 52 12 172 37 265 56 94 18 199 40 235
49 36 8 89 20 119 25 77 14 107 30 125 68 15 31 15 43 1 136 -8 56 -26 153
-39 216 -24 110 -32 147 -55 270 -92 487 -99 514 -135 548 -17 16 -43 32 -57
34 -14 3 -77 -6 -140 -19z m-97 -206 c62 -30 129 -93 163 -152 77 -134 50
-322 -59 -423 -74 -69 -143 -96 -306 -123 -41 -7 -78 -15 -82 -18 -3 -3 5 -69
18 -145 13 -77 21 -142 19 -144 -7 -7 -207 -44 -211 -39 -3 2 -18 80 -34 173
-17 93 -51 282 -76 419 -71 391 -72 395 -63 400 4 3 97 21 206 40 109 20 203
37 208 40 6 3 44 3 86 2 58 -3 90 -10 131 -30z"/>
<path d="M6925 7032 c-68 -15 -80 -21 -79 -37 1 -22 45 -279 48 -282 2 -2 51
6 109 16 69 13 118 27 137 41 81 58 84 176 6 249 -34 32 -112 37 -221 13z"/>
<path d="M8895 6760 c-13 -6 -15 -9 -5 -9 8 0 22 4 30 9 18 12 2 12 -25 0z"/>
<path d="M1218 6693 c6 -2 18 -2 25 0 6 3 1 5 -13 5 -14 0 -19 -2 -12 -5z"/>
<path d="M9110 6274 c-69 -14 -244 -50 -390 -80 -146 -31 -317 -67 -380 -79
-63 -13 -225 -47 -360 -75 -135 -28 -319 -66 -410 -85 -91 -19 -286 -59 -435
-90 -148 -31 -333 -69 -410 -85 -210 -43 -611 -128 -690 -147 -68 -17 -69 -17
-35 -24 20 -5 80 -2 139 7 193 26 211 13 48 -37 -56 -17 -115 -42 -132 -55
l-30 -24 33 0 c18 0 195 34 395 76 199 41 470 97 602 124 221 45 371 76 1215
250 370 76 357 74 525 109 77 16 218 45 312 63 194 37 184 29 159 122 -7 28
-17 51 -22 52 -5 1 -65 -9 -134 -22z"/>
<path d="M2703 6183 c9 -2 15 -8 12 -13 -3 -4 5 -6 17 -2 21 5 21 6 2 13 -10
4 -26 7 -34 7 -10 0 -9 -2 3 -5z"/>
<path d="M2425 6120 c-3 -5 -2 -10 4 -10 5 0 13 5 16 10 3 6 2 10 -4 10 -5 0
-13 -4 -16 -10z"/>
<path d="M5210 6109 c-101 -45 -160 -138 -160 -249 0 -149 98 -256 247 -268
l62 -5 -6 37 c-4 24 -2 36 6 36 6 0 10 6 9 13 -2 7 8 12 27 12 34 1 105 63
105 93 0 10 5 23 10 28 7 7 7 32 0 80 -11 73 -10 134 2 134 8 0 39 -65 59
-125 8 -26 14 -34 17 -22 8 40 -44 146 -97 194 -70 66 -189 84 -281 42z m147
-120 c107 -40 131 -165 46 -239 -33 -29 -41 -32 -88 -28 -59 5 -96 29 -119 76
-30 63 -14 131 41 170 44 31 78 37 120 21z"/>
<path d="M1958 6113 c6 -2 18 -2 25 0 6 3 1 5 -13 5 -14 0 -19 -2 -12 -5z"/>
<path d="M2288 6103 c7 -3 16 -2 19 1 4 3 -2 6 -13 5 -11 0 -14 -3 -6 -6z"/>
<path d="M1868 6093 c7 -3 16 -2 19 1 4 3 -2 6 -13 5 -11 0 -14 -3 -6 -6z"/>
<path d="M2048 6063 c7 -3 16 -2 19 1 4 3 -2 6 -13 5 -11 0 -14 -3 -6 -6z"/>
<path d="M2080 6060 c0 -5 7 -7 15 -4 8 4 15 8 15 10 0 2 -7 4 -15 4 -8 0 -15
-4 -15 -10z"/>
<path d="M1988 6043 c6 -2 18 -2 25 0 6 3 1 5 -13 5 -14 0 -19 -2 -12 -5z"/>
<path d="M1648 6013 c6 -2 18 -2 25 0 6 3 1 5 -13 5 -14 0 -19 -2 -12 -5z"/>
<path d="M2275 6015 c-5 -2 -27 -6 -49 -10 -28 -5 -36 -9 -28 -17 9 -9 18 -9
34 -1 13 6 39 15 58 21 19 5 26 10 15 10 -11 0 -24 -1 -30 -3z"/>
<path d="M2116 5984 c-69 -19 -68 -24 4 -19 60 5 96 15 54 15 -16 0 -17 2 -4
10 19 12 8 11 -54 -6z"/>
<path d="M1625 5910 c-3 -5 1 -10 10 -10 9 0 13 5 10 10 -3 6 -8 10 -10 10 -2
0 -7 -4 -10 -10z"/>
<path d="M1780 5899 c-36 -10 -77 -18 -91 -19 -15 0 -30 -7 -33 -16 -4 -10 -2
-13 7 -7 6 4 17 8 24 9 62 10 173 39 173 45 0 11 -1 11 -80 -12z"/>
<path d="M1459 5884 c-26 -8 -50 -22 -53 -31 -6 -15 -5 -16 11 -1 10 9 51 21
91 28 39 6 72 14 72 16 0 9 -78 2 -121 -12z"/>
<path d="M1470 5819 c-11 -7 -1 -8 35 -3 28 4 52 8 54 10 10 9 -76 3 -89 -7z"/>
<path d="M2280 5710 c-21 -7 -21 -8 -5 -9 11 0 27 4 35 9 18 11 5 11 -30 0z"/>
<path d="M2105 5671 c-3 -6 -13 -10 -23 -10 -22 0 -144 -33 -139 -37 5 -5 114
14 155 27 17 6 32 15 32 20 0 12 -17 12 -25 0z"/>
<path d="M3008 5670 c-49 -15 -99 -51 -139 -102 -21 -27 -39 -54 -39 -59 0 -5
9 -18 21 -30 25 -25 21 -40 -17 -59 l-30 -16 14 -43 c14 -42 15 -43 49 -36 26
5 40 2 54 -11 26 -24 24 -41 -8 -61 -16 -9 -30 -18 -32 -20 -10 -7 38 -47 82
-70 107 -54 221 -37 304 45 60 58 85 110 91 184 12 158 -113 290 -272 287 -28
0 -63 -4 -78 -9z m153 -146 c39 -20 63 -63 63 -115 0 -56 -28 -99 -80 -124
-112 -53 -237 74 -180 183 39 75 117 97 197 56z"/>
<path d="M1855 5590 c4 -6 11 -8 16 -5 14 9 11 15 -7 15 -8 0 -12 -5 -9 -10z"/>
<path d="M1786 5563 c-23 -12 -34 -13 -48 -4 -22 14 -58 14 -94 1 -39 -15 -25
-21 21 -9 32 8 47 7 69 -5 27 -14 33 -13 70 6 51 26 54 28 30 28 -10 -1 -32
-8 -48 -17z"/>
<path d="M5255 5473 c-42 -6 -405 -79 -815 -163 -190 -39 -388 -80 -440 -90
-52 -11 -228 -47 -390 -80 -162 -33 -448 -92 -635 -130 -187 -37 -371 -76
-410 -85 -38 -9 -122 -27 -185 -40 -240 -49 -559 -115 -655 -136 -55 -11 -275
-56 -488 -99 -213 -43 -390 -80 -393 -83 -9 -9 19 -137 30 -137 25 0 812 161
1541 315 116 25 298 62 405 84 107 22 314 64 460 95 146 30 375 78 510 105
135 27 423 86 640 131 217 45 447 92 510 105 63 13 176 38 250 54 74 17 139
31 144 31 6 0 6 4 -1 11 -13 13 -66 15 -175 4 -63 -5 -88 -5 -88 3 0 7 12 14
28 18 57 12 128 36 152 52 14 9 28 15 33 14 4 -1 7 2 7 7 0 5 8 12 18 14 14 4
13 5 -3 4 -11 0 -33 -2 -50 -4z"/>
<path d="M2218 5433 c7 -3 16 -2 19 1 4 3 -2 6 -13 5 -11 0 -14 -3 -6 -6z"/>
<path d="M2168 5423 c7 -3 16 -2 19 1 4 3 -2 6 -13 5 -11 0 -14 -3 -6 -6z"/>
<path d="M1128 5402 c4 -11 7 -12 10 -3 3 8 8 7 18 -6 7 -10 14 -13 14 -6 0
12 -17 26 -37 29 -7 1 -9 -5 -5 -14z"/>
<path d="M2690 5385 c-30 -8 -134 -24 -230 -35 -174 -21 -284 -44 -171 -36 81
5 43 -9 -152 -60 -192 -49 -197 -50 -197 -30 0 8 -14 22 -32 30 -38 20 -112
22 -105 4 2 -7 15 -12 28 -11 13 1 41 -3 62 -8 l38 -10 -7 -44 -6 -44 38 6
c22 3 80 16 129 30 50 13 119 28 155 34 36 5 85 14 110 19 25 5 84 14 132 21
48 7 85 15 83 19 -5 8 105 30 158 32 l38 1 -3 49 c-2 26 -5 48 -8 47 -3 0 -30
-7 -60 -14z"/>
<path d="M1593 5373 c-80 -18 -84 -38 -6 -29 51 5 86 16 53 16 -9 0 -7 5 6 15
23 17 25 17 -53 -2z"/>
<path d="M1914 5382 c3 -5 0 -13 -6 -15 -9 -4 -10 -6 -1 -6 17 -1 25 16 12 25
-7 4 -9 3 -5 -4z"/>
<path d="M2260 5371 c-36 -10 -72 -21 -80 -24 -28 -13 71 5 133 23 79 23 33
24 -53 1z"/>
<path d="M1165 5361 c-3 -5 -1 -12 5 -16 5 -3 10 1 10 9 0 18 -6 21 -15 7z"/>
<path d="M1688 5353 c7 -3 16 -2 19 1 4 3 -2 6 -13 5 -11 0 -14 -3 -6 -6z"/>
<path d="M1195 5300 c3 -5 8 -10 11 -10 2 0 4 5 4 10 0 6 -5 10 -11 10 -5 0
-7 -4 -4 -10z"/>
<path d="M1618 5243 c29 -2 74 -2 100 0 26 2 2 3 -53 3 -55 0 -76 -1 -47 -3z"/>
<path d="M718 5233 c7 -3 16 -2 19 1 4 3 -2 6 -13 5 -11 0 -14 -3 -6 -6z"/>
<path d="M2828 5223 c6 -2 18 -2 25 0 6 3 1 5 -13 5 -14 0 -19 -2 -12 -5z"/>
<path d="M1695 5160 l30 -7 -28 -11 c-16 -7 -32 -12 -36 -12 -17 0 -113 -32
-108 -36 2 -3 58 5 123 17 66 12 126 22 134 22 18 0 40 16 40 28 0 5 -42 8
-92 8 -62 -1 -83 -4 -63 -9z"/>
<path d="M2568 5163 c7 -3 16 -2 19 1 4 3 -2 6 -13 5 -11 0 -14 -3 -6 -6z"/>
<path d="M1183 5148 c-15 -20 -25 -38 -20 -38 3 0 12 11 21 25 17 26 16 35 -1
13z"/>
<path d="M2439 5149 c-17 -5 -12 -7 21 -7 25 0 54 3 65 7 25 10 -50 10 -86 0z"/>
<path d="M1240 5119 c0 -5 5 -7 10 -4 6 3 10 8 10 11 0 2 -4 4 -10 4 -5 0 -10
-5 -10 -11z"/>
<path d="M890 5080 c-20 -6 -21 -8 -5 -8 11 0 34 4 50 8 27 7 27 8 5 8 -14 0
-36 -4 -50 -8z"/>
<path d="M1008 5083 c23 -2 61 -2 85 0 23 2 4 4 -43 4 -47 0 -66 -2 -42 -4z"/>
<path d="M2067 5078 c-10 -5 -25 -7 -33 -4 -8 3 -28 3 -46 -1 -27 -5 -29 -7
-12 -14 27 -10 115 1 108 13 -4 6 2 8 13 4 11 -4 31 -2 44 3 21 7 19 9 -16 9
-22 0 -48 -4 -58 -10z"/>
<path d="M4705 5065 l-50 -14 50 6 c27 3 61 9 75 14 l25 7 -25 0 c-14 0 -47
-6 -75 -13z"/>
<path d="M820 5060 c-18 -12 -2 -12 25 0 13 6 15 9 5 9 -8 0 -22 -4 -30 -9z"/>
<path d="M1900 5056 c0 -2 11 -6 25 -8 13 -3 22 -1 19 3 -5 9 -44 13 -44 5z"/>
<path d="M778 5043 c7 -3 16 -2 19 1 4 3 -2 6 -13 5 -11 0 -14 -3 -6 -6z"/>
<path d="M1160 5040 c-8 -5 -10 -10 -5 -10 6 0 17 5 25 10 8 5 11 10 5 10 -5
0 -17 -5 -25 -10z"/>
<path d="M1858 5043 c7 -3 16 -2 19 1 4 3 -2 6 -13 5 -11 0 -14 -3 -6 -6z"/>
<path d="M4590 5041 c0 -4 11 -6 25 -3 14 2 25 6 25 8 0 2 -11 4 -25 4 -14 0
-25 -4 -25 -9z"/>
<path d="M708 5023 c7 -3 16 -2 19 1 4 3 -2 6 -13 5 -11 0 -14 -3 -6 -6z"/>
<path d="M610 5000 c-30 -10 -50 -18 -45 -19 6 0 37 8 70 18 33 11 53 19 45
19 -8 1 -40 -7 -70 -18z"/>
<path d="M640 4950 c-20 -6 -21 -8 -5 -8 11 0 29 3 40 8 25 11 -1 11 -35 0z"/>
<path d="M573 4933 c9 -2 23 -2 30 0 6 3 -1 5 -18 5 -16 0 -22 -2 -12 -5z"/>
</g>
</svg>
